<?xml version="1.0" encoding="utf-8"?>
<!-- Generator: Adobe Illustrator 27.5.0, SVG Export Plug-In . SVG Version: 6.00 Build 0)  -->
<svg version="1.1" xmlns="http://www.w3.org/2000/svg" xmlns:xlink="http://www.w3.org/1999/xlink" x="0px" y="0px"
	 viewBox="0 0 750 500" style="enable-background:new 0 0 750 500;" xml:space="preserve">
<g id="BACKGROUND">
	<rect style="fill:#FBE0D4;" width="750" height="500"/>
</g>
<g id="OBJECTS">
	<g>
		<g>
			<path style="fill:none;stroke:#FFFFFF;stroke-width:2.0879;stroke-miterlimit:10;" d="M81.022,367.083
				c0,4.953-3.959,8.968-8.844,8.968c-4.884,0-8.844-4.015-8.844-8.968c0-4.953,3.959-8.968,8.844-8.968
				C77.062,358.115,81.022,362.13,81.022,367.083z"/>
			<path style="fill:none;stroke:#FFFFFF;stroke-width:2.0879;stroke-miterlimit:10;" d="M666.21,179.8
				c0,4.953-3.959,8.968-8.844,8.968c-4.884,0-8.844-4.015-8.844-8.968c0-4.953,3.959-8.968,8.844-8.968
				C662.251,170.832,666.21,174.847,666.21,179.8z"/>
			<path style="fill:none;stroke:#FFFFFF;stroke-width:2.0879;stroke-miterlimit:10;" d="M385.763,80.464
				c0,3.609-2.885,6.534-6.443,6.534c-3.558,0-6.443-2.925-6.443-6.534s2.885-6.534,6.443-6.534
				C382.879,73.93,385.763,76.855,385.763,80.464z"/>
			<path style="fill:#FFFFFF;" d="M235.169,55.787h-109.8c-1.711,0-3.098-1.387-3.098-3.097l0,0c0-1.711,1.387-3.098,3.098-3.098
				h109.8c1.711,0,3.097,1.387,3.097,3.098l0,0C238.266,54.401,236.88,55.787,235.169,55.787z"/>
			<path style="fill:#FFFFFF;" d="M682.028,421.367h-60.4c-1.711,0-3.097-1.387-3.097-3.097l0,0c0-1.711,1.387-3.098,3.097-3.098
				h60.4c1.711,0,3.097,1.387,3.097,3.098l0,0C685.125,419.98,683.739,421.367,682.028,421.367z"/>
			<path style="fill:#FFFFFF;" d="M645.269,99.8h-21.603c-1.711,0-3.098-1.387-3.098-3.097l0,0c0-1.711,1.387-3.098,3.098-3.098
				h21.603c1.711,0,3.097,1.387,3.097,3.098l0,0C648.367,98.413,646.98,99.8,645.269,99.8z"/>
			<path style="fill:#CB94FF;" d="M690.627,258.645h-10.078c-1.678,0-3.039-1.36-3.039-3.039v-9.57c0-1.678,1.36-3.039,3.039-3.039
				h10.078c1.678,0,3.039,1.36,3.039,3.039v9.57C693.666,257.285,692.305,258.645,690.627,258.645z"/>
			<path style="fill:#CB94FF;" d="M106.59,131.941H96.512c-1.678,0-3.039-1.36-3.039-3.039v-9.57c0-1.678,1.36-3.039,3.039-3.039
				h10.078c1.678,0,3.039,1.36,3.039,3.039v9.57C109.628,130.581,108.268,131.941,106.59,131.941z"/>
			<polygon style="fill:#FFFFFF;" points="479.051,393.657 489.183,431.56 496.088,422.804 507.958,438.181 517.826,430.396 
				504.79,415.198 514.974,409.178 			"/>
		</g>
		<g>
			<g>
				<path style="fill:#FFFFFF;" d="M606.684,359.219H180.619c-2.794,0-5.059-2.265-5.059-5.059V135.397
					c0-2.794,2.265-5.059,5.059-5.059h426.065c2.794,0,5.059,2.265,5.059,5.059V354.16
					C611.743,356.954,609.478,359.219,606.684,359.219z"/>
				<path style="fill:#CB94FF;" d="M611.743,158.039H175.56v-23.563c0-2.286,1.853-4.139,4.139-4.139h427.905
					c2.286,0,4.139,1.853,4.139,4.139V158.039z"/>
				<g>
					<path style="fill:#FFFFFF;" d="M204.969,145.146c0,2.305-1.869,4.174-4.174,4.174s-4.174-1.869-4.174-4.174
						s1.869-4.174,4.174-4.174S204.969,142.84,204.969,145.146z"/>
					<path style="fill:#FFFFFF;" d="M221.192,145.146c0,2.305-1.869,4.174-4.174,4.174s-4.174-1.869-4.174-4.174
						s1.869-4.174,4.174-4.174S221.192,142.84,221.192,145.146z"/>
					<path style="fill:#FFFFFF;" d="M237.416,145.146c0,2.305-1.869,4.174-4.174,4.174s-4.174-1.869-4.174-4.174
						s1.869-4.174,4.174-4.174S237.416,142.84,237.416,145.146z"/>
				</g>
				<path style="fill:none;stroke:#FBE0D4;stroke-miterlimit:10;" d="M560.127,298.309H453.926c-5.128,0-9.284-4.157-9.284-9.284
					v-80.546c0-5.127,4.157-9.284,9.284-9.284h106.201c5.128,0,9.284,4.157,9.284,9.284v80.546
					C569.411,294.153,565.255,298.309,560.127,298.309z"/>
			</g>
			<g>
				<g>
					<path style="fill:#7F63FF;" d="M132.041,253.458H68.713c-2.738,0-4.957-2.22-4.957-4.958v-63.328
						c0-2.738,2.219-4.958,4.957-4.958h63.328c2.738,0,4.958,2.22,4.958,4.958v63.328
						C136.999,251.239,134.779,253.458,132.041,253.458z"/>
					<path style="fill:#FFFFFF;" d="M108.891,211.027c-0.689-0.689-0.689-1.806,0-2.495c0.689-0.689,1.806-0.689,2.495,0
						l7.057,7.057c0.689,0.689,0.689,1.806,0,2.495l-7.057,7.057c-0.689,0.689-1.806,0.689-2.495,0
						c-0.689-0.689-0.689-1.806,0-2.495l5.809-5.809L108.891,211.027z M83.769,216.837l5.809,5.809c0.689,0.689,0.689,1.806,0,2.495
						c-0.689,0.689-1.806,0.689-2.495,0l-7.057-7.057c-0.689-0.689-0.689-1.806,0-2.495l7.057-7.057
						c0.689-0.689,1.806-0.689,2.495,0c0.689,0.689,0.689,1.806,0,2.495L83.769,216.837z M99.854,209.161
						c0.342-0.912,1.359-1.375,2.271-1.032c0.912,0.342,1.375,1.359,1.032,2.271l-5.293,14.113
						c-0.342,0.912-1.359,1.375-2.271,1.032c-0.912-0.342-1.374-1.359-1.032-2.271L99.854,209.161z"/>
				</g>
				<g>
					<g>
						<path style="fill:#FE6F3F;" d="M564.226,180.357h-113.13c-3.419,0-6.19-2.771-6.19-6.19V74.722c0-3.419,2.771-6.19,6.19-6.19
							h113.13c3.419,0,6.19,2.771,6.19,6.19v99.444C570.417,177.586,567.645,180.357,564.226,180.357z"/>
					</g>
					<g>
						
							<line style="fill:none;stroke:#FFFFFF;stroke-width:1.2548;stroke-miterlimit:10;" x1="483.835" y1="124.441" x2="527.882" y2="124.441"/>
						
							<line style="fill:none;stroke:#FFFFFF;stroke-width:1.2548;stroke-miterlimit:10;" x1="463.56" y1="138.041" x2="527.882" y2="138.041"/>
						
							<line style="fill:none;stroke:#FFFFFF;stroke-width:1.2548;stroke-miterlimit:10;" x1="463.56" y1="106.887" x2="554.969" y2="106.887"/>
						
							<line style="fill:none;stroke:#FFFFFF;stroke-width:1.2548;stroke-miterlimit:10;" x1="462.337" y1="153.682" x2="489.838" y2="153.682"/>
						
							<line style="fill:none;stroke:#FFFFFF;stroke-width:1.2548;stroke-miterlimit:10;" x1="498.08" y1="153.682" x2="554.969" y2="153.682"/>
						
							<line style="fill:none;stroke:#FFFFFF;stroke-width:1.2548;stroke-miterlimit:10;" x1="462.337" y1="124.441" x2="474.645" y2="124.441"/>
						
							<line style="fill:none;stroke:#FFFFFF;stroke-width:1.2548;stroke-miterlimit:10;" x1="497.493" y1="92.367" x2="527.882" y2="92.367"/>
						<g>
							
								<line style="fill:none;stroke:#FFFFFF;stroke-width:1.2548;stroke-miterlimit:10;" x1="478.537" y1="86.36" x2="473.505" y2="98.373"/>
							<polyline style="fill:none;stroke:#FFFFFF;stroke-width:1.2548;stroke-miterlimit:10;" points="468.504,88.133 
								463.921,92.367 468.504,96.842 							"/>
							<polyline style="fill:none;stroke:#FFFFFF;stroke-width:1.2548;stroke-miterlimit:10;" points="484.454,88.133 
								489.037,92.367 484.454,96.842 							"/>
						</g>
					</g>
				</g>
				<g>
					<path style="fill:#7F63FF;" d="M659.943,361.847H529.879v-74.775c0-3.335,2.703-6.038,6.038-6.038h117.988
						c3.335,0,6.038,2.703,6.038,6.038V361.847z"/>
					<g>
						<path style="fill:#FFD446;" d="M529.879,359.098l31.382-25.733l26.612,19.73l37.041-36.989l35.029,29.295v26.077
							c0,3.462-2.807,6.269-6.269,6.269H536.148c-3.462,0-6.269-2.807-6.269-6.269V359.098z"/>
						<circle style="fill:#FFFFFF;" cx="585.364" cy="312.898" r="8.471"/>
					</g>
				</g>
			</g>
		</g>
	</g>
	<g>
		<g>
			<g>
				<path style="fill:#CB94FF;" d="M331.992,428.794H125.009c-3.389,0-6.136-2.747-6.136-6.136V299.302
					c0-3.389,2.747-6.136,6.136-6.136h206.983c3.389,0,6.136,2.747,6.136,6.136v123.355
					C338.128,426.046,335.381,428.794,331.992,428.794z"/>
			</g>
			<g>
				<path style="fill:#FFFFFF;" d="M175.619,337.338l-2.356-0.413c-0.276-1.027-0.684-2.013-1.215-2.933l1.373-1.958
					c0.505-0.719,0.419-1.697-0.203-2.318l-1.41-1.41c-0.63-0.61-1.608-0.68-2.318-0.165l-1.958,1.373
					c-0.921-0.531-1.907-0.94-2.933-1.215l-0.405-2.408c-0.147-0.855-0.881-1.484-1.748-1.5h-2.033
					c-0.881-0.002-1.636,0.632-1.786,1.5l-0.413,2.348c-1.027,0.276-2.013,0.684-2.933,1.215l-1.951-1.313
					c-0.719-0.505-1.697-0.419-2.318,0.203l-1.41,1.41c-0.622,0.621-0.707,1.599-0.203,2.318l1.373,1.958
					c-0.531,0.921-0.94,1.907-1.215,2.933l-2.348,0.413c-0.869,0.15-1.502,0.904-1.5,1.786v1.996
					c-0.002,0.881,0.632,1.636,1.5,1.786l2.348,0.413c0.275,1.027,0.684,2.013,1.215,2.933l-1.373,1.958
					c-0.505,0.719-0.419,1.697,0.203,2.318l1.41,1.41c0.621,0.622,1.599,0.707,2.318,0.203l1.958-1.373
					c0.921,0.531,1.907,0.94,2.933,1.215l0.413,2.348c0.15,0.868,0.904,1.502,1.786,1.5h2.026c0.881,0.002,1.636-0.632,1.786-1.5
					l0.413-2.348c1.027-0.275,2.013-0.684,2.933-1.215l1.913,1.343c0.719,0.505,1.697,0.419,2.318-0.203l1.41-1.41
					c0.622-0.621,0.707-1.599,0.203-2.318l-1.373-1.973c0.531-0.921,0.94-1.907,1.215-2.933l2.356-0.413
					c0.868-0.15,1.502-0.904,1.5-1.786v-1.996C177.117,338.237,176.484,337.487,175.619,337.338z M161.409,345.501
					c-2.975,0-5.387-2.412-5.387-5.387s2.412-5.387,5.387-5.387c2.975,0,5.387,2.412,5.387,5.387c0,0.01,0,0.02,0,0.03
					C166.779,343.107,164.372,345.501,161.409,345.501z"/>
				<g>
					
						<line style="fill:none;stroke:#FFFFFF;stroke-width:1.323;stroke-miterlimit:10;" x1="196.769" y1="335.27" x2="252.825" y2="335.27"/>
					
						<line style="fill:none;stroke:#FFFFFF;stroke-width:1.323;stroke-miterlimit:10;" x1="150.081" y1="371.609" x2="297.965" y2="371.609"/>
					
						<line style="fill:none;stroke:#FFFFFF;stroke-width:1.323;stroke-miterlimit:10;" x1="150.081" y1="391.928" x2="297.965" y2="391.928"/>
					
						<line style="fill:none;stroke:#FFFFFF;stroke-width:1.323;stroke-miterlimit:10;" x1="196.769" y1="351.591" x2="226.363" y2="351.591"/>
					
						<line style="fill:none;stroke:#FFFFFF;stroke-width:1.323;stroke-miterlimit:10;" x1="243.357" y1="351.591" x2="296.933" y2="351.591"/>
				</g>
			</g>
		</g>
		<g>
			<g>
				<g>
					<g>
						<g>
							<polygon style="fill:#FDB5AE;" points="432.854,361.992 412.515,377.243 387.309,345.077 407.648,329.826 							"/>
							<g>
								<path style="fill:#FFFFFF;" d="M404.841,373.122l27.282-20.457c0,0,4.886,5.568,14.204,0.002
									c9.318-5.567,17.499-4.6,22.782,1.025l-54.091,40.559C415.018,394.25,410.009,386.644,404.841,373.122z"/>
								
									<rect x="409.708" y="373.488" transform="matrix(0.8001 -0.5999 0.5999 0.8001 -136.8354 341.2262)" style="fill:#01021F;" width="67.609" height="4.829"/>
								<path style="fill:none;stroke:#01021F;stroke-width:0.9882;stroke-miterlimit:10;" d="M409.328,383.668
									c0,0,11.028-6.642,17.374,1.82"/>
								
									<path style="fill:none;stroke:#01021F;stroke-width:0.9882;stroke-linecap:round;stroke-linejoin:round;stroke-miterlimit:10;" d="
									M438.217,355.263c0,0-15.971-7.246-18.688,0.136C416.321,364.117,438.217,355.263,438.217,355.263z"/>
								
									<path style="fill:none;stroke:#01021F;stroke-width:0.9882;stroke-linecap:round;stroke-linejoin:round;stroke-miterlimit:10;" d="
									M438.222,355.27c0,0-2.085-15.954,6.292-15.179C452.891,340.866,438.222,355.27,438.222,355.27z"/>
								
									<path style="fill:none;stroke:#01021F;stroke-width:0.9882;stroke-linecap:round;stroke-linejoin:round;stroke-miterlimit:10;" d="
									M438.081,355.375c0,0-1.719,1.261-3.187,6.351"/>
								
									<path style="fill:none;stroke:#01021F;stroke-width:0.9882;stroke-linecap:round;stroke-linejoin:round;stroke-miterlimit:10;" d="
									M442.821,354.518c0,0-3.008,2.522-3.073,6.34"/>
							</g>
						</g>
						<path style="fill:#6E5CF7;" d="M332.066,248.301c0,0,13.432-20.267,36.022,10.748c22.59,31.015,54.484,81.196,54.484,81.196
							l-31.12,21.634l-62.564-85.954L332.066,248.301z"/>
					</g>
					<polygon style="fill:#6E5CF7;" points="343.305,241.797 275.141,246.622 297.429,278.221 335.812,278.221 					"/>
				</g>
				<g>
					<path style="fill:#7F63FF;" d="M240.132,241.759c0,0-3.256,9.382-2.88,20.667c0.626,18.796,16.175,33.659,34.982,33.659h55.47
						l0.353-44.907l-37.063-8.086L240.132,241.759z"/>
					<g>
						<g>
							<polygon style="fill:#FDB5AE;" points="355.886,397.972 330.752,401.785 323.764,361.523 348.897,357.709 							"/>
							<g>
								<path style="fill:#FFFFFF;" d="M325.941,394.524l33.714-5.116c0,0,1.67,7.217,12.513,6.721
									c10.843-0.496,17.593,4.226,19.586,11.681l-66.844,10.142C324.911,417.953,324.097,408.883,325.941,394.524z"/>
								
									<rect x="324.89" y="412.855" transform="matrix(0.9887 -0.15 0.15 0.9887 -58.2373 58.5086)" style="fill:#01021F;" width="67.609" height="4.829"/>
								<path style="fill:none;stroke:#01021F;stroke-width:0.9882;stroke-miterlimit:10;" d="M324.905,405.939
									c0,0,12.859-0.634,14.445,9.824"/>
								
									<path style="fill:none;stroke:#01021F;stroke-width:0.9882;stroke-linecap:round;stroke-linejoin:round;stroke-miterlimit:10;" d="
									M363.795,394.581c0,0-10.642-13.94-16.529-8.721C340.315,392.022,363.795,394.581,363.795,394.581z"/>
								
									<path style="fill:none;stroke:#01021F;stroke-width:0.9882;stroke-linecap:round;stroke-linejoin:round;stroke-miterlimit:10;" d="
									M363.796,394.589c0,0,5.711-15.042,12.725-10.396C383.534,388.839,363.796,394.589,363.796,394.589z"/>
								
									<path style="fill:none;stroke:#01021F;stroke-width:0.9882;stroke-linecap:round;stroke-linejoin:round;stroke-miterlimit:10;" d="
									M363.622,394.616c0,0-2.111,0.298-5.812,4.087"/>
								
									<path style="fill:none;stroke:#01021F;stroke-width:0.9882;stroke-linecap:round;stroke-linejoin:round;stroke-miterlimit:10;" d="
									M368.203,396.103c0,0-3.843,0.799-5.707,4.132"/>
							</g>
						</g>
						<g>
							<path style="fill:#7F63FF;" d="M316.003,251.176c0,0,20.934-12.367,27.713,25.4c6.779,37.767,13.557,96.837,13.557,96.837
								l-37.443,5.872l-18.749-104.646L316.003,251.176z"/>
							<line style="fill:none;stroke:#473FE0;stroke-miterlimit:10;" x1="304.924" y1="296.084" x2="303.022" y2="285.469"/>
						</g>
					</g>
				</g>
			</g>
			<g>
				<g>
					<path style="fill:#FE6F3F;" d="M310.927,162.468c0,0,10.444,24.283,16.061,49.657l21.929,13.453l-15.807,21.626l-19.368-8.804
						c-3.273-1.488-5.99-3.974-7.761-7.102l-18.736-33.086L310.927,162.468z"/>
					<g>
						<path style="fill:#FE6F3F;" d="M283.925,143.553c0,0-19.576-0.102-33.656,15.865c-14.08,15.967-10.097,60.147-10.097,82.341
							l55.349,1.351l16.073-72.533c0.941-3.435,0.296-7.111-1.758-10.021l-1.654-2.342c-4.04-5.721-9.823-9.981-16.486-12.142
							L283.925,143.553z"/>
						<line style="fill:none;stroke:#E8512E;stroke-miterlimit:10;" x1="307.889" y1="181.267" x2="301.082" y2="217.108"/>
					</g>
					<g>
						<g>
							<g>
								<path style="fill:#FE6F3F;" d="M248.717,161.512c-9.065,11.617-21.201,39.052-24.728,65.529
									c-1.074,8.06,3.202,15.514,11.232,16.797h0c7.572,1.209,16.735-3.498,18.723-10.904l25.014-61.229
									c2.12-7.896-4.325-16.047-12.158-18.393l0,0C259.567,151.146,253.362,155.56,248.717,161.512z"/>
							</g>
							<line style="fill:none;stroke:#E8512E;stroke-miterlimit:10;" x1="261.022" y1="216.154" x2="273.78" y2="180.419"/>
						</g>
						<g>
							<path style="fill:#FDB5AE;" d="M301.082,225.52c0,0,28.117-11.012,28.203,17.596l-30.928,0.052L301.082,225.52z"/>
							<g>
								<g>
									<g>
										<path style="fill:#FE6F3F;" d="M242.412,215.486l65.195,1.802l-5.598,25.822l-67.639,1.075
											c-9.497-2.049-11.861-13.68-5.191-20.745l0,0C232.243,220.195,238.072,214.448,242.412,215.486z"/>
									</g>
								</g>
								<polyline style="fill:none;stroke:#E8512E;stroke-miterlimit:10;" points="245.952,215.362 307.607,217.288 306.128,224.11 
																	"/>
							</g>
						</g>
					</g>
				</g>
				<g>
					<path d="M271.235,243.106l58.05,0.01l-0.001,8.189l-58.05-0.01c-2.261,0-4.094-1.834-4.094-4.095v0
						C267.141,244.939,268.974,243.106,271.235,243.106z"/>
					<g>
						<path style="fill:#21063F;" d="M317.067,251.303l15.193-67.676c0.61-1.126,1.788-1.827,3.069-1.827l91.021,0.015
							c1.938,0,3.194,2.044,2.32,3.773l-11.967,57.227c-1.036,4.954-5.404,8.503-10.465,8.502L317.067,251.303z"/>
						<circle style="fill:#FFFFFF;" cx="375.32" cy="219.027" r="6.493"/>
					</g>
				</g>
			</g>
			<g>
				<path style="fill:#F08F8A;" d="M313.743,117.984c-1.145,4.026,1.085,8.203,4.981,9.329c3.895,1.126,8.757-1.074,9.901-5.101
					c1.145-4.026-1.085-8.203-4.981-9.329C319.749,111.758,314.888,113.958,313.743,117.984z"/>
				<path style="fill:#FDB5AE;" d="M301.959,134.45l-3.602,13.662c-1.643,6.143-6.185,8.432-12.023,6.793l0,0
					c-4.983-1.399-9.818-5.302-8.139-10.655l7.588-23.341L301.959,134.45z"/>
				<path style="fill:#F08F8A;" d="M298.357,148.111c0,0-12.415-9.522-13.202-24.072c-0.293-5.419,17.322,8.628,17.322,8.628
					L298.357,148.111z"/>
				<path style="fill:#FDB5AE;" d="M300.299,141.247L300.299,141.247c10.107,2.184,20.21-4.263,22.327-12.727l4.334-17.73
					c2.654-10.608-3.316-21.362-13.491-24.304l0,0c-10.417-3.011-26.089,2.181-29.149,12.947l-0.289,14.425
					C281.126,126.331,288.383,137.802,300.299,141.247z"/>
				<path style="fill:#21063F;" d="M286.197,113.043l1.829,0.573l1.773-14.529c-0.041-0.524,1.345-7.861,3.004-5.971
					c1.595,1.817-1.541,1.165,2.774-0.751c6.329-2.81,18.078-3.255,27.01,2.906c2.528,1.743,4.222,4.348,4.773,7.369
					c0.245,1.345,0.398,3.488,0.165,4.689l0.594-3.357c2.093-10.14-6.957-20.392-16.206-22.173c-3.561-0.686-6.102-1.1-10.756-1.31
					c-11.764-0.53-22.794,8.103-21.837,19.84l1.9,8.146L286.197,113.043z"/>
				<g>
					<path style="fill:#FDB5AE;" d="M273.305,111.225c-1.133,3.987,1.85,8.274,5.708,9.389c3.857,1.115,7.903-1.213,9.037-5.2
						c1.133-3.987-2.626-8.425-6.484-9.54C277.709,104.759,274.439,107.238,273.305,111.225z"/>
					
						<path style="fill:none;stroke:#160C0B;stroke-width:0.987;stroke-linecap:round;stroke-linejoin:round;stroke-miterlimit:10;" d="
						M282.815,116.547c0,0,0.418-5.813-5.14-6.111"/>
				</g>
				<g>
					
						<polyline style="fill:none;stroke:#160C0B;stroke-width:0.987;stroke-linecap:round;stroke-linejoin:round;stroke-miterlimit:10;" points="
						312.703,122.323 313.08,126.566 310.218,126.069 					"/>
					<path d="M317.439,119.558c-0.242,0.985,0.334,1.975,1.287,2.212c0.953,0.237,1.922-0.37,2.165-1.354
						c0.243-0.984-0.334-1.975-1.287-2.211C318.65,117.967,317.681,118.573,317.439,119.558z"/>
					<path d="M301.584,115.651c-0.243,0.984,0.334,1.975,1.287,2.212c0.953,0.237,1.922-0.37,2.165-1.354
						c0.242-0.985-0.334-1.975-1.287-2.212C302.795,114.059,301.826,114.666,301.584,115.651z"/>
					<path style="fill:#21063F;" d="M317.41,110.625c0.617,0.317,1.244,0.47,1.842,0.641c0.587,0.16,1.218,0.269,1.709,0.429
						c1.009,0.344,2.099,1.151,3.257,1.798l0.026,0.014c0.222,0.124,0.499-0.018,0.619-0.317c0.075-0.186,0.069-0.392,0.003-0.549
						c-0.343-0.789-0.781-1.429-1.294-2.015c-0.516-0.574-1.109-1.074-1.844-1.406c-0.752-0.304-1.431-0.404-2.159-0.366
						c-0.719,0.061-1.423,0.206-2.141,0.639c-0.245,0.148-0.37,0.513-0.279,0.814c0.043,0.143,0.127,0.246,0.23,0.299
						L317.41,110.625z"/>
					<path style="fill:#21063F;" d="M309.209,107.665c-0.816-0.849-1.729-1.387-2.691-1.819c-0.97-0.42-1.973-0.663-3.076-0.717
						c-1.115-0.051-2.198,0.198-3.255,0.55c-1.059,0.377-2.084,0.86-3.094,1.566c-0.237,0.166-0.359,0.553-0.272,0.864
						c0.065,0.232,0.228,0.357,0.405,0.336l0.02-0.003c2.006-0.24,4.028-0.618,5.825-0.467c0.899,0.092,1.848,0.321,2.795,0.485
						c0.954,0.163,1.922,0.357,2.938,0.394l0.02,0.001c0.254,0.009,0.493-0.274,0.535-0.633
						C309.385,107.992,309.323,107.785,309.209,107.665z"/>
					<path style="fill:#FFFFFF;" d="M313.757,130.533l-12.791-2.871c0,0,0.67,4.639,5.436,5.713
						C312.023,134.642,313.757,130.533,313.757,130.533z"/>
				</g>
				<polygon style="fill:#FDB5AE;" points="278.953,149.993 292.681,166.486 298.099,148.948 				"/>
				<path style="fill:#21063F;" d="M327.361,102.639c0,0-10.771-0.426-25.212-13.588c0,0,3.672-5.22,14.515,0.124
					C327.506,94.518,327.361,102.639,327.361,102.639z"/>
				<path style="fill:#21063F;" d="M307.728,91.759c0,0,1.091,3.548,5.501,8.11c0,0-12.219,1.208-23.19-8.567
					s4.847-5.465,4.847-5.465l14.253,0.992L307.728,91.759z"/>
				<path style="fill:#21063F;" d="M295.851,90.34c0,0-1.079,14.336-9.488,15.558l0.844-11.857l3.436-4.85L295.851,90.34z"/>
			</g>
		</g>
	</g>
</g>
<g id="DESIGNED_BY_FREEPIK">
	<g>
		<g id="XMLID_29_">
			<g id="XMLID_48_">
				<path id="XMLID_56_" style="fill:#1C1C1B;" d="M385.084,465.471c-0.432,0.443-0.803,0.931-1.108,1.453l-0.465-0.241
					c-0.067-0.298-0.349-0.503-0.659-0.466c-0.331,0.039-0.568,0.339-0.529,0.67c0.039,0.331,0.339,0.568,0.67,0.529
					c0.065-0.008,0.127-0.026,0.184-0.052l0.451,0.234c-0.251,0.554-0.433,1.139-0.539,1.744l0.746,0.132
					c0.23-1.306,0.85-2.507,1.792-3.472L385.084,465.471z"/>
				<path id="XMLID_55_" style="fill:#1C1C1B;" d="M390.572,463.169c-0.171,0-0.341,0.006-0.51,0.017l-0.074-0.626
					c0.188-0.149,0.296-0.389,0.266-0.645c-0.046-0.393-0.402-0.674-0.795-0.628c-0.393,0.046-0.674,0.402-0.628,0.795
					c0.03,0.254,0.189,0.461,0.405,0.564l0.073,0.624c-0.714,0.116-1.403,0.332-2.06,0.646l0.327,0.684
					c0.934-0.447,1.942-0.673,2.995-0.673c0.496,0,0.993,0.053,1.475,0.158l0.161-0.741
					C391.672,463.228,391.122,463.169,390.572,463.169z"/>
				<path id="XMLID_54_" style="fill:#1C1C1B;" d="M397.174,465.716c0.331-0.04,0.566-0.341,0.526-0.672
					c-0.04-0.331-0.342-0.566-0.672-0.526c-0.309,0.038-0.535,0.304-0.53,0.609l-0.416,0.363c-0.418-0.43-0.89-0.813-1.408-1.139
					l-0.404,0.641c1.134,0.715,2.021,1.726,2.563,2.925l0.69-0.313c-0.251-0.554-0.568-1.072-0.942-1.545l0.402-0.351
					C397.045,465.721,397.109,465.724,397.174,465.716z"/>
				<path id="XMLID_53_" style="fill:#1C1C1B;" d="M390.024,473.377c-0.386,0.023-0.775,0.035-1.157,0.035
					c-0.88,0-1.733-0.061-2.478-0.179c-0.39-0.062-0.846-0.155-1.27-0.292c1.046,1.861,3.069,3.125,5.388,3.125
					c2.855,0,5.262-1.916,5.95-4.504c-0.682,0.449-1.505,0.825-2.459,1.123C392.818,473.052,391.443,473.292,390.024,473.377z"/>
				<path id="XMLID_49_" style="fill:#1C1C1B;" d="M390.572,464.685c-3.352,0-6.08,2.666-6.08,5.944
					c0,0.425,0.046,0.849,0.137,1.261c0.673,0.483,2.706,0.89,5.348,0.731c2.879-0.173,5.297-0.957,6.672-2.158
					c-0.005-0.195-0.021-0.39-0.045-0.582C396.223,466.919,393.63,464.685,390.572,464.685z M388.412,471.2
					c-1.02,0-1.85-0.83-1.85-1.85c0-1.02,0.83-1.85,1.85-1.85c1.02,0,1.85,0.83,1.85,1.85
					C390.262,470.37,389.432,471.2,388.412,471.2z M393.15,470.292c-0.75,0-1.36-0.61-1.36-1.36s0.61-1.361,1.36-1.361
					c0.75,0,1.36,0.61,1.36,1.361S393.9,470.292,393.15,470.292z"/>
			</g>
			<path id="XMLID_46_" style="fill:#1C1C1B;" d="M406.575,466.552c-0.295-0.116-0.806-0.309-1.382-0.237
				c-0.551,0.068-0.844,0.34-0.844,1.007v0.866h2.228v1.717h-2.228v5.455h-1.932v-5.455h-1.34v-1.717h1.34v-0.888
				c0-1.68,0.896-2.783,2.568-2.783c0.642,0,1.157,0.122,1.59,0.308L406.575,466.552z"/>
			<path id="XMLID_44_" style="fill:#1C1C1B;" d="M411.278,469.884c-0.177-0.03-0.358-0.046-0.526-0.046
				c-0.895,0-1.51,0.548-1.51,1.613v3.908h-1.932v-7.172h1.873v0.785c0.451-0.673,1.14-0.977,2.021-0.977
				c0.414,0,0.848,0.128,1.094,0.337L411.278,469.884z"/>
			<path id="XMLID_41_" style="fill:#1C1C1B;" d="M418.945,471.762c0,0.222-0.015,0.489-0.037,0.651h-5.085
				c0.207,1.036,0.933,1.488,1.843,1.488c0.622,0,1.295-0.252,1.813-0.688l1.133,1.243c-0.814,0.748-1.85,1.088-3.057,1.088
				c-2.198,0-3.723-1.495-3.723-3.753c0-2.258,1.48-3.797,3.626-3.797C417.524,467.995,418.937,469.527,418.945,471.762z
				 M413.83,471.096h3.175c-0.177-0.918-0.733-1.436-1.562-1.436C414.534,469.66,414.001,470.208,413.83,471.096z"/>
			<path id="XMLID_38_" style="fill:#1C1C1B;" d="M426.598,471.762c0,0.222-0.015,0.489-0.037,0.651h-5.085
				c0.207,1.036,0.932,1.488,1.843,1.488c0.622,0,1.295-0.252,1.813-0.688l1.132,1.243c-0.814,0.748-1.85,1.088-3.057,1.088
				c-2.198,0-3.723-1.495-3.723-3.753c0-2.258,1.48-3.797,3.627-3.797C425.177,467.995,426.591,469.527,426.598,471.762z
				 M421.484,471.096h3.175c-0.178-0.918-0.733-1.436-1.562-1.436C422.187,469.66,421.654,470.208,421.484,471.096z"/>
			<path id="XMLID_35_" style="fill:#1C1C1B;" d="M434.944,471.77c0,2.154-1.495,3.775-3.471,3.775
				c-0.962,0-1.643-0.378-2.109-0.933v3.708h-1.924v-10.133h1.887v0.792c0.466-0.585,1.155-0.984,2.139-0.984
				C433.449,467.995,434.944,469.616,434.944,471.77z M429.267,471.77c0,1.132,0.747,1.976,1.843,1.976
				c1.14,0,1.85-0.881,1.85-1.976c0-1.095-0.711-1.976-1.85-1.976C430.014,469.794,429.267,470.637,429.267,471.77z"/>
			<path id="XMLID_32_" style="fill:#1C1C1B;" d="M438.047,465.841c0,0.696-0.54,1.229-1.236,1.229
				c-0.696,0-1.229-0.533-1.229-1.229c0-0.696,0.533-1.243,1.229-1.243C437.507,464.598,438.047,465.146,438.047,465.841z
				 M437.788,475.359h-1.932v-7.172h1.932V475.359z"/>
			<path id="XMLID_30_" style="fill:#1C1C1B;" d="M441.012,470.741l2.702-2.554h2.368l-3.479,3.375l3.501,3.797h-2.376l-2.716-2.901
				v2.901h-1.932v-10.658h1.932V470.741z"/>
		</g>
		<g>
			<path style="fill:#1C1C1B;" d="M309.392,475.294v-1.055c-0.527,0.718-1.391,1.231-2.388,1.231c-1.846,0-3.149-1.406-3.149-3.706
				c0-2.256,1.289-3.721,3.149-3.721c0.952,0,1.816,0.469,2.388,1.245v-3.765h1.099v9.77H309.392z M309.392,473.376v-3.208
				c-0.395-0.615-1.245-1.143-2.124-1.143c-1.421,0-2.27,1.172-2.27,2.739c0,1.567,0.85,2.724,2.27,2.724
				C308.147,474.489,308.997,473.991,309.392,473.376z"/>
			<path style="fill:#1C1C1B;" d="M311.912,471.75c0-2.051,1.465-3.706,3.486-3.706c2.139,0,3.398,1.67,3.398,3.794v0.279h-5.727
				c0.088,1.333,1.025,2.446,2.549,2.446c0.806,0,1.626-0.322,2.182-0.893l0.527,0.718c-0.703,0.703-1.655,1.084-2.812,1.084
				C313.42,475.47,311.912,473.962,311.912,471.75z M315.383,468.952c-1.509,0-2.256,1.274-2.314,2.358h4.643
				C317.697,470.255,316.994,468.952,315.383,468.952z"/>
			<path style="fill:#1C1C1B;" d="M319.587,474.357l0.571-0.791c0.469,0.542,1.362,1.011,2.329,1.011c1.084,0,1.67-0.513,1.67-1.216
				c0-1.714-4.38-0.659-4.38-3.281c0-1.098,0.952-2.036,2.636-2.036c1.201,0,2.051,0.454,2.622,1.026l-0.513,0.762
				c-0.424-0.513-1.201-0.894-2.109-0.894c-0.967,0-1.567,0.483-1.567,1.113c0,1.552,4.38,0.527,4.38,3.281
				c0,1.187-0.952,2.139-2.783,2.139C321.286,475.47,320.304,475.119,319.587,474.357z"/>
			<path style="fill:#1C1C1B;" d="M326.457,466.477c0-0.41,0.337-0.747,0.732-0.747c0.41,0,0.747,0.337,0.747,0.747
				c0,0.41-0.337,0.732-0.747,0.732C326.794,467.209,326.457,466.887,326.457,466.477z M326.647,475.294v-7.075h1.099v7.075H326.647
				z"/>
			<path style="fill:#1C1C1B;" d="M329.562,477.111l0.556-0.82c0.586,0.703,1.289,0.967,2.3,0.967c1.172,0,2.27-0.571,2.27-2.124
				v-1.011c-0.513,0.718-1.377,1.26-2.373,1.26c-1.845,0-3.149-1.377-3.149-3.662c0-2.27,1.289-3.677,3.149-3.677
				c0.952,0,1.802,0.469,2.373,1.245v-1.069h1.099v6.87c0,2.344-1.641,3.076-3.369,3.076
				C331.217,478.165,330.396,477.931,329.562,477.111z M334.688,473.259v-3.091c-0.381-0.615-1.23-1.143-2.109-1.143
				c-1.421,0-2.27,1.128-2.27,2.695c0,1.553,0.849,2.695,2.27,2.695C333.458,474.416,334.307,473.874,334.688,473.259z"/>
			<path style="fill:#1C1C1B;" d="M342.393,475.294v-4.629c0-1.245-0.63-1.641-1.582-1.641c-0.865,0-1.685,0.527-2.095,1.099v5.17
				h-1.099v-7.075h1.099v1.025c0.498-0.586,1.465-1.201,2.519-1.201c1.48,0,2.256,0.747,2.256,2.285v4.966H342.393z"/>
			<path style="fill:#1C1C1B;" d="M344.912,471.75c0-2.051,1.465-3.706,3.486-3.706c2.138,0,3.398,1.67,3.398,3.794v0.279h-5.727
				c0.088,1.333,1.025,2.446,2.549,2.446c0.806,0,1.626-0.322,2.183-0.893l0.527,0.718c-0.703,0.703-1.655,1.084-2.812,1.084
				C346.421,475.47,344.912,473.962,344.912,471.75z M348.384,468.952c-1.509,0-2.256,1.274-2.314,2.358h4.643
				C350.698,470.255,349.995,468.952,348.384,468.952z"/>
			<path style="fill:#1C1C1B;" d="M358.33,475.294v-1.055c-0.527,0.718-1.392,1.231-2.388,1.231c-1.846,0-3.149-1.406-3.149-3.706
				c0-2.256,1.289-3.721,3.149-3.721c0.952,0,1.817,0.469,2.388,1.245v-3.765h1.099v9.77H358.33z M358.33,473.376v-3.208
				c-0.396-0.615-1.245-1.143-2.124-1.143c-1.421,0-2.27,1.172-2.27,2.739c0,1.567,0.849,2.724,2.27,2.724
				C357.085,474.489,357.934,473.991,358.33,473.376z"/>
			<path style="fill:#1C1C1B;" d="M364.672,475.294v-9.77h1.098v3.765c0.572-0.776,1.421-1.245,2.388-1.245
				c1.845,0,3.149,1.465,3.149,3.721c0,2.299-1.304,3.706-3.149,3.706c-0.996,0-1.86-0.513-2.388-1.231v1.055H364.672z
				 M367.879,474.489c1.436,0,2.285-1.157,2.285-2.724c0-1.568-0.85-2.739-2.285-2.739c-0.864,0-1.728,0.527-2.109,1.143v3.208
				C366.151,473.991,367.015,474.489,367.879,474.489z"/>
			<path style="fill:#1C1C1B;" d="M372.508,477.067c0.161,0.073,0.425,0.117,0.601,0.117c0.483,0,0.806-0.161,1.055-0.747
				l0.469-1.069l-2.959-7.148h1.187l2.358,5.801l2.344-5.801h1.201l-3.545,8.51c-0.425,1.025-1.143,1.421-2.08,1.435
				c-0.234,0-0.601-0.044-0.805-0.103L372.508,477.067z"/>
		</g>
	</g>
</g>
</svg>
